# xmcd
#
# Track frame offsets: 
#        183
#        64490
#        92455
#        167898
#        189075
#        237015
#        247998
#
# Disc length: 3673 seconds
#
# Revision: 5
# Processed by: cddbd v1.5.2PL0 Copyright (c) Steve Scherf et al.
# Submitted via: ExactAudioCopy v1.3
#
DISCID=4f0e5707
DTITLE=Berliner Philarmoniker\\\\Herbert von Karajan - Berlioz - Sinfo
DTITLE=nía Fantastica
DYEAR=1969
DGENRE=Classical
TTITLE0=Sinfonía Fantastica Op.14 - 1. Sogni - Passioni
TTITLE1=Sinfonía Fantastica Op.14 - 2. Un ballo
TTITLE2=Sinfonía Fantástica Op.14 - 3. Scena nei campi
TTITLE3=Sinfonía Fantástica Op.14 - 4. Marcia al supplizio
TTITLE4=Sinfonía Fantástica Op.14 - 5. Sogno di una notte del Sabba
TTITLE5=La dannazione di Faust Op.24 - 1. Danza delle Silfidi
TTITLE6=La dannazione di Faust Op.24 - 2. Minuetto dei Folletti
EXTD=Berliner Philharmoniker\nHerbert von Karajan
EXTT0=Berliner Philharmoniker\nHerbert von Karajan
EXTT1=Berliner Philharmoniker\nHerbert von Karajan
EXTT2=Berliner Philharmoniker\nHerbert von Karajan
EXTT3=Berliner Philharmoniker\nHerbert von Karajan
EXTT4=Berliner Philharmoniker\nHerbert von Karajan
EXTT5=Berliner Philharmoniker\nHerbert von Karajan
EXTT6=Berliner Philharmoniker\nHerbert von Karajan
PLAYORDER=
